nColumns=19
nRows=113
DataType=double
version=3
OpenSimVersion=4.1
endheader
time	ground_force_1_vx	ground_force_1_vy	ground_force_1_vz	ground_force_1_px	ground_force_1_py	ground_force_1_pz	ground_force_1_mx	ground_force_1_my	ground_force_1_mz	ground_force_2_vx	ground_force_2_vy	ground_force_2_vz	ground_force_2_px	ground_force_2_py	ground_force_2_pz	ground_force_2_mx	ground_force_2_my	ground_force_2_mz
0.01	1.06148	36.2527	3.80105	0.149757	0.006	-0.200484	0	0.342504	0	0	0	0	0.694728	0	-0.267617	0	0	0
0.02	-1.81503	58.3645	3.98027	0.166048	0.006	-0.199382	0	0.323253	0	0	0	0	0.694728	0	-0.267617	0	0	0
0.03	-5.81778	85.4815	3.93651	0.176101	0.006	-0.198459	0	0.323432	0	0	0	0	0.694728	0	-0.267617	0	0	0
0.04	-11.1268	117.689	3.57881	0.183352	0.006	-0.197631	0	0.333682	0	0	0	0	0.694728	0	-0.267617	0	0	0
0.05	-17.897	154.73	2.80159	0.189168	0.006	-0.196854	0	0.350359	0	0	0	0	0.694728	0	-0.267617	0	0	0
0.06	-26.1592	195.993	1.49487	0.194206	0.006	-0.196098	0	0.371908	0	0	0	0	0.694728	0	-0.267617	0	0	0
0.07	-35.6778	240.643	-0.433075	0.198804	0.006	-0.19534	0	0.397758	0	0	0	0	0.694728	0	-0.267617	0	0	0
0.08	-46.0512	287.618	-3.04489	0.203141	0.006	-0.194568	0	0.427752	0	0	0	0	0.694728	0	-0.267617	0	0	0
0.09	-56.837	335.584	-6.36557	0.20732	0.006	-0.193775	0	0.461779	0	0	0	0	0.694728	0	-0.267617	0	0	0
0.1	-67.5697	383.047	-10.3664	0.211399	0.006	-0.192961	0	0.500644	0	0	0	0	0.694728	0	-0.267617	0	0	0
0.11	-77.7921	428.564	-14.9423	0.215404	0.006	-0.192133	0	0.547505	0	0	0	0	0.694728	0	-0.267617	0	0	0
0.12	-87.0835	470.902	-19.903	0.219336	0.006	-0.191309	0	0.607334	0	0	0	0	0.694728	0	-0.267617	0	0	0
0.13	-95.0893	509.134	-25.0014	0.223186	0.006	-0.190506	0	0.68443	0	0	0	0	0.694728	0	-0.267617	0	0	0
0.14	-101.556	542.696	-29.9786	0.22694	0.006	-0.189744	0	0.780022	0	0	0	0	0.694728	0	-0.267617	0	0	0
0.15	-106.331	571.338	-34.5855	0.230581	0.006	-0.189038	0	0.89235	0	0	0	0	0.694728	0	-0.267617	0	0	0
0.16	-109.345	594.993	-38.5999	0.234097	0.006	-0.188403	0	1.01722	0	0	0	0	0.694728	0	-0.267617	0	0	0
0.17	-110.612	613.698	-41.8585	0.237481	0.006	-0.187844	0	1.14751	0	0	0	0	0.694728	0	-0.267617	0	0	0
0.18	-110.215	627.554	-44.2777	0.240737	0.006	-0.187362	0	1.274	0	0	0	0	0.694728	0	-0.267617	0	0	0
0.19	-108.304	636.716	-45.8551	0.24388	0.006	-0.186952	0	1.38712	0	0	0	0	0.694728	0	-0.267617	0	0	0
0.2	-105.079	641.395	-46.6593	0.246934	0.006	-0.1866	0	1.47832	0	0	0	0	0.694728	0	-0.267617	0	0	0
0.21	-100.777	641.872	-46.8076	0.249934	0.006	-0.186292	0	1.54118	0	0	0	0	0.694728	0	-0.267617	0	0	0
0.22	-95.6542	638.51	-46.4382	0.252921	0.006	-0.186014	0	1.57211	0	0	0	0	0.694728	0	-0.267617	0	0	0
0.23	-89.9642	631.766	-45.6864	0.255934	0.006	-0.185754	0	1.57013	0	0	0	0	0.694728	0	-0.267617	0	0	0
0.24	-83.9437	622.197	-44.6676	0.259012	0.006	-0.185506	0	1.53633	0	0	0	0	0.694728	0	-0.267617	0	0	0
0.25	-77.8012	610.441	-43.4692	0.26219	0.006	-0.18527	0	1.47312	0	0	0	0	0.694728	0	-0.267617	0	0	0
0.26	-71.7118	597.182	-42.1504	0.265493	0.006	-0.185055	0	1.38322	0	0	0	0	0.694728	0	-0.267617	0	0	0
0.27	-65.8122	583.112	-40.7477	0.268937	0.006	-0.184873	0	1.2689	0	0	0	0	0.694728	0	-0.267617	0	0	0
0.28	-60.2007	568.886	-39.2824	0.272527	0.006	-0.184741	0	1.13149	0	0	0	0	0.694728	0	-0.267617	0	0	0
0.29	-54.9378	555.091	-37.7684	0.276256	0.006	-0.184678	0	0.971408	0	0	0	0	0.694728	0	-0.267617	0	0	0
0.3	-50.0505	542.231	-36.2194	0.280108	0.006	-0.184702	0	0.788239	0	0	0	0	0.694728	0	-0.267617	0	0	0
0.31	-45.5384	530.713	-34.6514	0.284058	0.006	-0.184824	0	0.581046	0	0	0	0	0.694728	0	-0.267617	0	0	0
0.32	-41.3795	520.844	-33.0837	0.288077	0.006	-0.185051	0	0.348702	0	0	0	0	0.694728	0	-0.267617	0	0	0
0.33	-37.5346	512.842	-31.538	0.292131	0.006	-0.185382	0	0.090119	0	0	0	0	0.694728	0	-0.267617	0	0	0
0.34	-33.9512	506.844	-30.0378	0.296184	0.006	-0.185809	0	-0.195467	0	0	0	0	0.694728	0	-0.267617	0	0	0
0.35	-30.5669	502.925	-28.6087	0.300203	0.006	-0.186315	0	-0.50816	0	0	0	0	0.694728	0	-0.267617	0	0	0
0.36	-27.3133	501.101	-27.2791	0.30416	0.006	-0.186876	0	-0.847066	0	0	0	0	0.694728	0	-0.267617	0	0	0
0.37	-24.1186	501.339	-26.0798	0.308029	0.006	-0.187465	0	-1.20994	0	0	0	0	0.694728	0	-0.267617	0	0	0
0.38	-20.9113	503.567	-25.0426	0.311792	0.006	-0.188054	0	-1.59302	0	0	0	0	0.694728	0	-0.267617	0	0	0
0.39	-17.6231	507.685	-24.1974	0.315436	0.006	-0.188617	0	-1.99119	0	0	0	0	0.694728	0	-0.267617	0	0	0
0.4	-14.1925	513.568	-23.5689	0.318952	0.006	-0.18913	0	-2.39817	0	0	0	0	0.694728	0	-0.267617	0	0	0
0.41	-10.5671	521.08	-23.1718	0.322334	0.006	-0.189581	0	-2.80682	0	0	0	0	0.694728	0	-0.267617	0	0	0
0.42	-6.70493	530.081	-23.0072	0.325582	0.006	-0.189961	0	-3.20951	0	0	0	0	0.694728	0	-0.267617	0	0	0
0.43	-2.57633	540.419	-23.0609	0.328695	0.006	-0.190273	0	-3.59841	0	0	0	0	0.694728	0	-0.267617	0	0	0
0.44	1.83591	551.935	-23.3037	0.331672	0.006	-0.190522	0	-3.96574	0	0	0	0	0.694728	0	-0.267617	0	0	0
0.45	6.53649	564.44	-23.6947	0.334514	0.006	-0.190718	0	-4.30395	0	0	0	0	0.694728	0	-0.267617	0	0	0
0.46	11.5183	577.696	-24.1859	0.337221	0.006	-0.190874	0	-4.60569	0	0	0	0	0.694728	0	-0.267617	0	0	0
0.47	16.7639	591.395	-24.7235	0.339794	0.006	-0.190999	0	-4.86401	0	0	0	0	0.694728	0	-0.267617	0	0	0
0.48	22.2461	605.143	-25.2469	0.342235	0.006	-0.191106	0	-5.07294	0	0	0	0	0.694728	0	-0.267617	0	0	0
0.49	27.9267	618.443	-25.6857	0.344547	0.006	-0.191201	0	-5.22808	0	0	0	0	0.694728	0	-0.267617	0	0	0
0.5	33.755	630.684	-25.9605	0.346737	0.006	-0.191293	0	-5.32708	0	0	0	0	0.694728	0	-0.267617	0	0	0
0.51	39.6676	641.149	-25.9896	0.348812	0.006	-0.191387	0	-5.36965	0	0	0	0	0.694728	0	-0.267617	0	0	0
0.52	45.5858	649.038	-25.6976	0.350781	0.006	-0.191486	0	-5.35717	0	0	0	0	0.694728	0	-0.267617	0	0	0
0.53	51.4123	653.51	-25.0253	0.352655	0.006	-0.19159	0	-5.29218	0	0	0	0	0.694728	0	-0.267617	0	0	0
0.54	57.027	653.734	-23.9376	0.354447	0.006	-0.191698	0	-5.17785	0	7.59254	24.5524	-5.23593	0.704167	0.006	-0.270316	0	0.35385	0
0.55	62.2848	648.941	-22.4288	0.356169	0.006	-0.191806	0	-5.01774	0	7.59517	42.2898	-5.85388	0.743661	0.006	-0.281143	0	0.421106	0
0.56	67.0174	638.485	-20.5242	0.357835	0.006	-0.191908	0	-4.81571	0	6.9171	64.1866	-6.42214	0.764293	0.006	-0.286225	0	0.449018	0
0.57	71.0389	621.89	-18.2783	0.359461	0.006	-0.191995	0	-4.57596	0	5.31911	90.3673	-6.8765	0.777469	0.006	-0.289049	0	0.460784	0
0.58	74.154	598.902	-15.7706	0.361062	0.006	-0.192061	0	-4.30318	0	2.54029	120.707	-7.14075	0.787039	0.006	-0.290781	0	0.463724	0
0.59	76.1714	569.53	-13.0992	0.362657	0.006	-0.192098	0	-4.0027	0	-1.59653	154.875	-7.12962	0.794663	0.006	-0.291925	0	0.461553	0
0.6	76.9211	534.081	-10.3739	0.364267	0.006	-0.192098	0	-3.68031	0	-7.08216	192.415	-6.74316	0.801149	0.006	-0.292735	0	0.457315	0
0.61	76.2756	493.181	-7.70934	0.365915	0.006	-0.192055	0	-3.34205	0	-13.7724	232.712	-5.88691	0.806919	0.006	-0.293347	0	0.453631	0
0.62	74.1713	447.77	-5.21779	0.36763	0.006	-0.191966	0	-2.99373	0	-21.4344	274.932	-4.49106	0.812211	0.006	-0.293837	0	0.452132	0
0.63	70.6277	399.079	-2.99831	0.369445	0.006	-0.191828	0	-2.64075	0	-29.7451	318.052	-2.53543	0.81716	0.006	-0.294246	0	0.45235	0
0.64	65.7641	348.567	-1.12618	0.371399	0.006	-0.191642	0	-2.2884	0	-38.3182	360.944	-0.0703417	0.821848	0.006	-0.294594	0	0.450945	0
0.65	59.8061	297.814	0.355694	0.373538	0.006	-0.191404	0	-1.94239	0	-46.7499	402.506	2.79186	0.826326	0.006	-0.29489	0	0.443611	0
0.66	53.0662	248.37	1.44167	0.375921	0.006	-0.19111	0	-1.60913	0	-54.682	441.816	5.91835	0.830638	0.006	-0.29514	0	0.428515	0
0.67	45.8944	201.625	2.16065	0.378642	0.006	-0.190743	0	-1.29555	0	-61.8472	478.21	9.17847	0.834821	0.006	-0.29535	0	0.406384	0
0.68	38.632	158.709	2.56584	0.38186	0.006	-0.190273	0	-1.00829	0	-68.0566	511.256	12.4402	0.838906	0.006	-0.295523	0	0.378572	0
0.69	31.5815	120.427	2.72148	0.385868	0.006	-0.189641	0	-0.752747	0	-73.189	540.672	15.5741	0.842914	0.006	-0.295662	0	0.347102	0
0.7	24.9873	87.2518	2.69169	0.391248	0.006	-0.188728	0	-0.532451	0	-77.1826	566.27	18.4663	0.846863	0.006	-0.295766	0	0.315084	0
0.71	19.0262	59.3354	2.53382	0.399269	0.006	-0.187275	0	-0.349253	0	-80.0222	587.928	21.0238	0.850764	0.006	-0.295838	0	0.286044	0
0.72	13.8098	36.5592	2.2952	0.413286	0.006	-0.184596	0	-0.204546	0	-81.729	605.582	23.1789	0.854624	0.006	-0.295878	0	0.263565	0
0.73	0	0	0	0.442386	0	-0.179566	0	0	0	-82.357	619.225	24.8926	0.858452	0.006	-0.295889	0	0.251165	0
0.74	0	0	0	0.46875	0	-0.179294	0	0	0	-81.987	628.911	26.1524	0.862251	0.006	-0.295875	0	0.251888	0
0.75	0	0	0	0.495115	0	-0.179023	0	0	0	-80.7227	634.762	26.9698	0.866029	0.006	-0.295838	0	0.268168	0
0.76	0	0	0	0.521479	0	-0.178752	0	0	0	-78.6848	636.97	27.3769	0.869791	0.006	-0.295783	0	0.301746	0
0.77	0	0	0	0.547844	0	-0.178481	0	0	0	-76.0042	635.798	27.423	0.873543	0.006	-0.295713	0	0.353579	0
0.78	0	0	0	0.574208	0	-0.178209	0	0	0	-72.8128	631.575	27.17	0.877293	0.006	-0.295634	0	0.423755	0
0.79	0	0	0	0.600573	0	-0.177938	0	0	0	-69.2357	624.687	26.6852	0.881045	0.006	-0.295547	0	0.511441	0
0.8	0	0	0	0.626937	0	-0.177667	0	0	0	-65.3842	615.563	26.0335	0.884804	0.006	-0.295455	0	0.615124	0
0.81	0	0	0	0.653302	0	-0.177396	0	0	0	-61.3533	604.664	25.2716	0.888572	0.006	-0.295358	0	0.733034	0
0.82	0	0	0	0.679666	0	-0.177124	0	0	0	-57.2191	592.474	24.4463	0.892345	0.006	-0.295251	0	0.863485	0
0.83	0	0	0	0.706031	0	-0.176853	0	0	0	-53.04	579.48	23.5953	0.896118	0.006	-0.295131	0	1.00495	0
0.84	0	0	0	0.732395	0	-0.176582	0	0	0	-48.8572	566.162	22.7496	0.899882	0.006	-0.294991	0	1.1563	0
0.85	0	0	0	0.75876	0	-0.176311	0	0	0	-44.6975	552.98	21.9357	0.903625	0.006	-0.294822	0	1.31702	0
0.86	0	0	0	0.785124	0	-0.176039	0	0	0	-40.575	540.363	21.1763	0.907333	0.006	-0.294616	0	1.48731	0
0.87	0	0	0	0.811489	0	-0.175768	0	0	0	-36.4924	528.705	20.4899	0.910989	0.006	-0.294364	0	1.66814	0
0.88	0	0	0	0.837853	0	-0.175497	0	0	0	-32.4418	518.358	19.8896	0.914575	0.006	-0.294056	0	1.86109	0
0.89	0	0	0	0.864218	0	-0.175226	0	0	0	-28.4058	509.626	19.3823	0.918072	0.006	-0.293686	0	2.06826	0
0.9	0	0	0	0.890582	0	-0.174954	0	0	0	-24.3573	502.762	18.9706	0.921464	0.006	-0.293248	0	2.29209	0
0.91	0	0	0	0.916947	0	-0.174683	0	0	0	-20.2601	497.969	18.6549	0.924734	0.006	-0.292741	0	2.5349	0
0.92	0	0	0	0.943312	0	-0.174412	0	0	0	-16.0702	495.395	18.4371	0.927872	0.006	-0.292167	0	2.79825	0
0.93	0	0	0	0.969676	0	-0.174141	0	0	0	-11.7382	495.133	18.3225	0.93087	0.006	-0.291536	0	3.08239	0
0.94	0	0	0	0.996041	0	-0.17387	0	0	0	-7.2131	497.221	18.3217	0.933725	0.006	-0.290859	0	3.38598	0
0.95	0	0	0	1.0224	0	-0.173598	0	0	0	-2.44505	501.641	18.4486	0.936441	0.006	-0.290152	0	3.70575	0
0.96	0	0	0	1.04877	0	-0.173327	0	0	0	2.61197	508.323	18.7175	0.939021	0.006	-0.289431	0	4.03666	0
0.97	0	0	0	1.07513	0	-0.173056	0	0	0	7.99767	517.148	19.1382	0.941473	0.006	-0.288715	0	4.37224	0
0.98	0	0	0	1.1015	0	-0.172785	0	0	0	13.7427	527.942	19.7129	0.943803	0.006	-0.288019	0	4.70489	0
0.99	0	0	0	1.12786	0	-0.172513	0	0	0	19.8659	540.479	20.4337	0.946019	0.006	-0.287354	0	5.02642	0
1	0	0	0	1.15423	0	-0.172242	0	0	0	26.3707	554.463	21.282	0.948126	0.006	-0.286731	0	5.32845	0
1.01	0	0	0	1.18059	0	-0.171971	0	0	0	33.2421	569.523	22.2276	0.950132	0.006	-0.286153	0	5.60279	0
1.02	0	0	0	1.20696	0	-0.1717	0	0	0	40.4424	585.203	23.2294	0.952044	0.006	-0.285622	0	5.84188	0
1.03	0	0	0	1.23332	0	-0.171428	0	0	0	47.9072	600.963	24.236	0.95387	0.006	-0.285136	0	6.03912	0
1.04	0	0	0	1.25969	0	-0.171157	0	0	0	55.5449	616.18	25.1877	0.955619	0.006	-0.28469	0	6.18917	0
1.05	0	0	0	1.28605	0	-0.170886	0	0	0	63.238	630.152	26.0208	0.957302	0.006	-0.28428	0	6.28805	0
1.06	0	0	0	1.31241	0	-0.170615	0	0	0	70.8464	642.12	26.6723	0.958928	0.006	-0.2839	0	6.33334	0
1.07	0	0	0	1.33878	0	-0.170343	0	0	0	78.2111	651.292	27.0839	0.960509	0.006	-0.283544	0	6.32429	0
1.08	0	0	0	1.36514	0	-0.170072	0	0	0	85.1588	656.878	27.2068	0.962052	0.006	-0.283211	0	6.26178	0
1.09	7.06094	22.3185	3.06126	1.39222	0.006	-0.169609	0	0.133684	0	91.5057	658.127	27.0043	0.963567	0.006	-0.282897	0	6.14823	0
1.1	6.789	38.6746	3.43224	1.41481	0.006	-0.168017	0	0.089197	0	97.0625	654.367	26.4535	0.965059	0.006	-0.282601	0	5.98741	0
1.11	5.86964	59.0982	3.70112	1.42784	0.006	-0.166959	0	0.058766	0	101.639	645.05	25.5469	0.966532	0.006	-0.282326	0	5.78427	0
1.12	4.09565	83.7857	3.80415	1.43703	0.006	-0.166122	0	0.032157	0	105.05	629.787	24.2934	0.967989	0.006	-0.282073	0	5.54455	0
1.13	1.23676	112.698	3.66322	1.44435	0.006	-0.165394	0	0.006544	0	107.12	608.383	22.7194	0.969433	0.006	-0.281846	0	5.27441	0
